<svg xmlns="http://www.w3.org/2000/svg" viewBox="0 0 63.46 82.61"><defs><style>.cls-1{fill:#fff;}.cls-2{fill:#373e60;}.cls-3{fill:#010c5e;}.cls-4{fill:#f91d2f;}</style></defs><g id="Layer_2" data-name="Layer 2"><g id="Layer_1-2" data-name="Layer 1"><g id="Add_online" data-name="Add online"><path class="cls-1" d="M2.19,6.86h35V73.43h-35Z"/><path class="cls-1" d="M19.68,76.7c1.57,0,3.13,0,4.69,0,1.2,0,1.09.72,1.11,1.5s-.08,1.35-1.13,1.33c-3.12,0-6.25,0-9.37,0-1.21,0-1.09-.72-1.11-1.49s.07-1.39,1.13-1.35C16.56,76.75,18.12,76.7,19.68,76.7Z"/><path class="cls-1" d="M10.94,3.8H28.38V4H11Z"/><rect class="cls-2" x="15.46" y="26.25" width="23" height="33"/><rect x="15.46" y="47.25" width="23" height="6"/><rect class="cls-2" x="38.46" y="31.25" width="25" height="23"/><rect x="38.46" y="45.89" width="25" height="4.18"/><path class="cls-3" d="M39.34,41.58c0,12,0,23.93,0,35.9a10,10,0,0,1-.73,3.24,2.94,2.94,0,0,1-3,1.88q-15.84,0-31.68,0c-2,0-3.25-1.29-3.75-3.55A8.73,8.73,0,0,1,0,77.35q0-36,0-72.09C0,3,.59,1.25,2.8.35A4.08,4.08,0,0,1,4.26,0Q19.67,0,35.09,0c2.46,0,4.21,1.92,4.23,4.67,0,4.44,0,8.89,0,13.34ZM2.19,6.86V73.43h35V6.86ZM19.68,76.7c-1.56,0-3.12,0-4.68,0-1.06,0-1.15.55-1.13,1.35s-.1,1.51,1.11,1.49c3.12,0,6.25,0,9.37,0,1,0,1.15-.53,1.13-1.33s.09-1.55-1.11-1.5C22.81,76.75,21.25,76.7,19.68,76.7ZM10.94,3.8,11,4H28.38V3.8Z"/><path class="cls-4" d="M22.68,36.94c.16,0,.28,0,.41,0,.71,0,1.43,0,2.14-.16a3.28,3.28,0,0,0,2.09-1.27,1.31,1.31,0,0,0,.32-.94H22.22a2.82,2.82,0,0,1,.18-.32c.23-.33.47-.65.71-1h4.32a.93.93,0,0,0-.45-.59,3.78,3.78,0,0,0-1.7-.6c-.92-.09-1.84-.12-2.76-.18H22.2a1,1,0,0,1,.1-.18l.24-.35c.2-.29.35-.68.63-.83a2.41,2.41,0,0,1,1,0h8.14c-.32.5-.61,1-.91,1.41,0,.05-.14.06-.21.06H29.07c.19.42.36.81.55,1.18,0,.06.17.08.25.08h2.41c-.27.39-.51.72-.71,1.08a.7.7,0,0,1-.76.39c-.29,0-.58,0-.88,0-.14,0-.21,0-.25.18a3.63,3.63,0,0,1-2.24,2.47,7.05,7.05,0,0,1-2.37.58l5.46,6.32H28.32a.46.46,0,0,1-.39-.17l-3.38-3.77c-.58-.64-1.16-1.28-1.72-1.93a.73.73,0,0,1-.14-.38C22.67,37.65,22.68,37.3,22.68,36.94Z"/><path class="cls-4" d="M49.36,38.09h.26c.45,0,.91,0,1.35-.1a2.11,2.11,0,0,0,1.33-.8.82.82,0,0,0,.2-.6H49.07c0-.08.07-.14.11-.2l.45-.62h2.74a.56.56,0,0,0-.29-.37A2.34,2.34,0,0,0,51,35c-.58-.06-1.17-.08-1.75-.11h-.2a.67.67,0,0,1,.06-.12l.15-.22c.13-.18.23-.43.4-.52a1.5,1.5,0,0,1,.64,0h5.15c-.2.32-.38.61-.57.89,0,0-.09,0-.14,0H53.41c.12.26.22.51.35.75,0,0,.1.05.15.05h1.52c-.16.25-.32.46-.45.69a.44.44,0,0,1-.47.25,5.23,5.23,0,0,0-.56,0c-.09,0-.13,0-.16.11a2.3,2.3,0,0,1-1.42,1.57,4.46,4.46,0,0,1-1.49.36l3.45,4h-1.4a.3.3,0,0,1-.25-.11l-2.14-2.39c-.36-.4-.73-.81-1.08-1.22a.34.34,0,0,1-.09-.24C49.36,38.54,49.36,38.32,49.36,38.09Z"/></g></g></g></svg>