<svg xmlns="http://www.w3.org/2000/svg" viewBox="0 0 63.05 72.68"><defs><style>.cls-1{fill:#010c5e;}.cls-2{fill:#f7f7ff;}.cls-3{fill:#f91d2f;}.cls-4{fill:#fff;}</style></defs><g id="Layer_2" data-name="Layer 2"><g id="Layer_1-2" data-name="Layer 1"><g id="Add_funds" data-name="Add funds"><path class="cls-1" d="M53.53,47.62c-6.27-.38-11,1.89-13.79,7.28-3,5.79-2.21,11.27,2.15,16.22a16.18,16.18,0,0,1-6.59,1.51c-5.54,0-11.08.08-16.62,0C10.37,72.52,4,67.49,1.38,59.12a34.13,34.13,0,0,1-1-15A35.15,35.15,0,0,1,6.25,28.4a39.4,39.4,0,0,1,7.61-8.59l.65-.48a5.28,5.28,0,0,1,3.38-1.08q8.84.24,17.67,0A4.93,4.93,0,0,1,39,19.37a31.21,31.21,0,0,1,3.27,2.9c5.17,5.53,9,11.83,10.41,19.36C53.05,43.58,53.24,45.57,53.53,47.62Z"/><path class="cls-2" d="M19.23,46.51c.26,0,.48,0,.7,0,1.24-.08,2.51-.09,3.74-.28A5.75,5.75,0,0,0,27.33,44a2.27,2.27,0,0,0,.55-1.65H18.41c.13-.23.21-.4.31-.54.41-.58.83-1.15,1.25-1.72l2,0h5.59a1.66,1.66,0,0,0-.8-1,6.5,6.5,0,0,0-3-1c-1.6-.16-3.22-.21-4.82-.31h-.57c.08-.14.12-.24.18-.32l.43-.62c.35-.49.61-1.17,1.09-1.43a4.1,4.1,0,0,1,1.76-.07H36.06c-.55.86-1.06,1.66-1.59,2.46,0,.08-.24.1-.37.1H30.39c.33.71.62,1.39,1,2.06,0,.09.29.14.44.14H36c-.45.69-.88,1.27-1.24,1.89a1.2,1.2,0,0,1-1.31.69c-.51-.06-1,0-1.54,0-.24,0-.37.05-.44.31a6.36,6.36,0,0,1-3.92,4.32,12,12,0,0,1-4.13,1l9.53,11.05H32c-1,0-2,0-3,0a.84.84,0,0,1-.69-.3q-2.94-3.3-5.9-6.59c-1-1.12-2-2.23-3-3.36a1.14,1.14,0,0,1-.24-.67C19.2,47.75,19.23,47.14,19.23,46.51Z"/><path class="cls-3" d="M51.94,72.58A11,11,0,0,1,40.6,61.52,11.22,11.22,0,0,1,63,61,11,11,0,0,1,51.94,72.58ZM50.52,60.12h-5.2c-1,0-1.47.45-1.5,1.23s.51,1.31,1.47,1.36h5.23v.88c0,1.43,0,2.86,0,4.29,0,.94.54,1.53,1.32,1.51s1.25-.57,1.27-1.48c0-.48,0-1,0-1.46V62.72h2.62c.94,0,1.89,0,2.83,0a1.28,1.28,0,1,0-.07-2.56c-.51,0-1,0-1.54,0H53.12c0-1.84,0-3.57,0-5.29a1.3,1.3,0,1,0-2.59,0C50.51,56.55,50.52,58.28,50.52,60.12Z"/><path class="cls-1" d="M13.64,0h26.1a11.09,11.09,0,0,1-1,6.12,11.29,11.29,0,0,1-1,1.65A4.56,4.56,0,0,1,33.5,9.94c-4.93-.16-9.88,0-14.82-.07a2.52,2.52,0,0,1-1.51-.55C14.3,6.9,13.5,3.67,13.64,0Z"/><path class="cls-1" d="M26.72,15.73c-2.86,0-5.72,0-8.59,0a1.59,1.59,0,0,1-1.59-2.25,1.79,1.79,0,0,1,1.87-1H33.8c.52,0,1,0,1.54,0a1.62,1.62,0,0,1,1.73,1.64,1.59,1.59,0,0,1-1.76,1.6Z"/><path class="cls-4" d="M50.52,60.12c0-1.84,0-3.57,0-5.3a1.3,1.3,0,1,1,2.59,0c0,1.72,0,3.45,0,5.29H57c.51,0,1,0,1.54,0a1.28,1.28,0,1,1,.07,2.56c-.94.06-1.89,0-2.83,0H53.12v3.74c0,.49,0,1,0,1.46,0,.91-.51,1.47-1.27,1.48s-1.31-.57-1.32-1.51c0-1.43,0-2.86,0-4.29v-.88H45.29c-1-.05-1.5-.56-1.47-1.36s.55-1.22,1.5-1.23Z"/></g></g></g></svg>