<svg xmlns="http://www.w3.org/2000/svg" viewBox="0 0 72.47 66.1"><defs><style>.cls-1{fill:#010c5e;}.cls-2,.cls-3{fill:#fff;}.cls-3{font-size:11.33px;font-family:MyriadPro-Regular, Myriad Pro;}.cls-4{letter-spacing:-0.08em;}.cls-5{letter-spacing:-0.08em;}.cls-6{fill:#f91d2f;}.cls-7{fill:#fcfafa;}</style></defs><g id="Layer_2" data-name="Layer 2"><g id="Layer_1-2" data-name="Layer 1"><g id="bill_pay" data-name="bill pay"><rect class="cls-1" y="0.01" width="47.2" height="66.08" rx="4.35"/><path class="cls-2" d="M35.72,0H34.11V4.86H14V0H12.4V5.68a.82.82,0,0,0,.82.81H34.93a.82.82,0,0,0,.82-.81S35.73,0,35.72,0Z"/><path class="cls-2" d="M34,13.1H23.6a.81.81,0,0,1-.81-.81.82.82,0,0,1,.81-.82H34a.82.82,0,0,1,.81.82A.81.81,0,0,1,34,13.1Z"/><path class="cls-2" d="M40.84,18.61H23.76a.82.82,0,0,1,0-1.63H40.84a.82.82,0,0,1,0,1.63Z"/><path class="cls-2" d="M40.84,24.27H23.76a.81.81,0,0,1-.81-.81.82.82,0,0,1,.81-.82H40.84a.82.82,0,0,1,.81.82A.81.81,0,0,1,40.84,24.27Z"/><path class="cls-2" d="M40.84,29.94H7.55a.82.82,0,0,1-.81-.82.81.81,0,0,1,.81-.81H40.84a.81.81,0,0,1,.81.81A.82.82,0,0,1,40.84,29.94Z"/><path class="cls-2" d="M20.77,35.6H7.55a.81.81,0,0,1-.81-.81A.82.82,0,0,1,7.55,34H20.77a.82.82,0,0,1,.81.82A.81.81,0,0,1,20.77,35.6Z"/><path class="cls-2" d="M20.77,41.27H7.55a.82.82,0,0,1-.81-.82.81.81,0,0,1,.81-.81H20.77a.81.81,0,0,1,.81.81A.82.82,0,0,1,20.77,41.27Z"/><path class="cls-2" d="M18.88,24.43H7.55a.81.81,0,0,1-.81-.82V12.29a.82.82,0,0,1,.81-.82H18.88a.82.82,0,0,1,.82.82V23.61A.82.82,0,0,1,18.88,24.43ZM8.37,22.8h9.7V13.1H8.37Z"/><text class="cls-3" transform="translate(45.82 46.34)"><tspan class="cls-4">P</tspan><tspan class="cls-5" x="5.08" y="0">A</tspan><tspan x="11.11" y="0">Y</tspan></text><rect class="cls-2" x="25.87" y="34.5" width="45.04" height="25.93"/><path class="cls-2" d="M70.91,62h-45a1.54,1.54,0,0,1-1.55-1.55V34.5a1.55,1.55,0,0,1,1.55-1.56h45a1.56,1.56,0,0,1,1.56,1.56V60.43A1.55,1.55,0,0,1,70.91,62Zm-43.48-3.1H69.36V36.05H27.43Z"/><rect class="cls-6" x="26.61" y="35.81" width="40.46" height="23.3" rx="1.28"/><rect class="cls-6" x="30.53" y="38.92" width="9.32" height="6.21" rx="0.63"/><path class="cls-7" d="M38.87,45.91H31.51a1.75,1.75,0,0,1-1.75-1.76V39.9a1.75,1.75,0,0,1,1.75-1.76h7.36a1.76,1.76,0,0,1,1.76,1.76v4.25A1.76,1.76,0,0,1,38.87,45.91ZM31.51,39.7a.2.2,0,0,0-.2.2v4.25a.21.21,0,0,0,.2.21h7.36a.21.21,0,0,0,.2-.21V39.9a.2.2,0,0,0-.2-.2Z"/><polygon class="cls-7" points="25.1 57.12 25.09 55.56 68.82 55.1 69.64 52.9 25.1 52.9 25.1 51.34 71.87 51.34 69.9 56.64 25.1 57.12"/></g></g></g></svg>