<svg xmlns="http://www.w3.org/2000/svg" viewBox="0 0 71.15 65.99"><defs><style>.cls-1{fill:#242020;}.cls-2{fill:#231f20;}.cls-3{fill:#fdbbaa;}.cls-4{fill:#252122;}.cls-5{fill:#061f96;}.cls-6{fill:#58595b;}.cls-7{fill:#010c5e;}.cls-8{fill:#414042;}.cls-9{fill:#f91d2f;}.cls-10{fill:#2d51d6;}.cls-11{fill:#fbfaff;}.cls-12{fill:#fafaff;}.cls-13{fill:#27221f;}</style></defs><g id="Layer_2" data-name="Layer 2"><g id="Layer_1-2" data-name="Layer 1"><g id="CC_pay" data-name="CC pay"><path class="cls-1" d="M70,21.19c.85.23,1.25.69,1.16,1.35s-.59,1.08-1.45,1a6.4,6.4,0,0,0-3.32.72c-2.09,1-3.68,1.19-7.15,1v.77c0,4.91,0,9.81,0,14.72,0,3.84-2.46,6.32-6.28,6.32H6.31A5.91,5.91,0,0,1,0,40.83V15.73a5.91,5.91,0,0,1,6.31-6.3q12.2,0,24.38,0a2.06,2.06,0,0,0,1.49-.6c2-1.73,3.92-3.55,6-5.12A18.8,18.8,0,0,1,49.55,0c3.32,0,6.63,0,9.94,0a14.36,14.36,0,0,1,6.61,1.5,6.91,6.91,0,0,0,3.72.87A1.13,1.13,0,0,1,71,4.09c-.21.31-.66.44-1,.65A8.82,8.82,0,0,1,64.9,3.56a11.33,11.33,0,0,0-5.41-1.19c-3.31,0-6.63-.07-9.94,0a23.62,23.62,0,0,0-4.64.68c-4,1-6.85,3.61-9.72,6.35H49.54a1.23,1.23,0,0,1,1.37.87,1.21,1.21,0,0,1-.73,1.45l-.32.18c-3.12,1.8-6.24,3.59-9.35,5.42a4.85,4.85,0,0,0-1.44,1.22,3.51,3.51,0,0,0,4.63,5.06c2.48-1.4,4.93-2.83,7.39-4.25,1-.59,1.39-.54,2.18.31a10.51,10.51,0,0,0,11.81,2.55A10,10,0,0,1,70,21.19ZM36.09,44.75c5.66,0,11.33,0,17,0a3.65,3.65,0,0,0,3.65-4.69H45.35l-.37,0H3c-.19,0-.38,0-.55,0C2,43.2,4,44.85,6.64,44.82c8.44-.11,16.88,0,25.32,0C33.34,44.78,34.71,44.76,36.09,44.75Zm12.5-7.07c2.57,0,5.14,0,7.71,0,.41,0,.56-.14.55-.56,0-1.17,0-2.35,0-3.52,0-.55-.2-.66-.69-.65-1.3,0-2.6,0-3.89,0H3a5.62,5.62,0,0,0-.56.06v4.65H47.63Zm8-13a14.21,14.21,0,0,1-4.73-3l-6.93,4a5.84,5.84,0,0,1-3.31.82,5.9,5.9,0,0,1-2.61-11c1.24-.73,2.5-1.45,3.75-2.17l2.37-1.38,0-.13H6.17A3.55,3.55,0,0,0,2.36,15.6V29.88c0,.24,0,.47,0,.76H53.24l.8,0h2.81c0-1.89,0-3.72,0-5.54C56.83,24.93,56.68,24.8,56.6,24.67Z"/><path class="cls-2" d="M68.78,58.92c.4,0,.74,0,1.08,0a1.18,1.18,0,0,1,1.27,1.3c0,1.49,0,3,0,4.49A1.18,1.18,0,0,1,69.84,66h-68C.28,66,0,65.7,0,64.13V60.52c0-1.24.36-1.6,1.63-1.6h.73V55.59c0-1.52,0-3,0-4.56,0-1.15.39-1.54,1.55-1.54H67.06c1.4,0,1.72.33,1.72,1.74Zm-2.39-7H4.77v7H66.39Zm2.35,9.43H2.39v2.26H68.74Z"/><path class="cls-3" d="M70,21.19a10,10,0,0,0-4.88,1,10.51,10.51,0,0,1-11.81-2.55c-.79-.85-1.16-.9-2.18-.31-2.46,1.42-4.91,2.85-7.39,4.25a3.51,3.51,0,0,1-4.63-5.06,4.85,4.85,0,0,1,1.44-1.22c3.11-1.83,6.23-3.62,9.35-5.42l.32-.18a1.21,1.21,0,0,0,.73-1.45,1.23,1.23,0,0,0-1.37-.87H35.19C38.06,6.69,41,4,44.91,3.08a23.62,23.62,0,0,1,4.64-.68c3.31-.1,6.63,0,9.94,0A11.33,11.33,0,0,1,64.9,3.56,8.82,8.82,0,0,0,70,4.74Z"/><path class="cls-4" d="M66.44,37.71h3.31c.86,0,1.38.46,1.38,1.18s-.53,1.17-1.39,1.17H63.06a1.2,1.2,0,0,1-1.35-1.14c0-.72.51-1.2,1.35-1.21Z"/><path class="cls-4" d="M64.05,44.78a13.21,13.21,0,0,1-2.27,0A2.1,2.1,0,0,1,60.49,44c-.41-.6.23-1.51,1.12-1.54,1.64,0,3.28,0,4.92,0a1.12,1.12,0,0,1,1.06,1.19,1.15,1.15,0,0,1-1.11,1.14c-.81,0-1.62,0-2.43,0Z"/><path class="cls-5" d="M54,30.61l-.8,0H2.4c0-.29,0-.52,0-.76V15.6a3.55,3.55,0,0,1,3.81-3.81H45.09l0,.13L42.77,13.3c-1.25.72-2.51,1.44-3.75,2.17a5.89,5.89,0,1,0,5.92,10.19l6.93-4a14.21,14.21,0,0,0,4.73,3c-.21.57-.4,1.15-.64,1.7C55.33,27.79,54.68,29.2,54,30.61ZM14.22,25.93c.81,0,1.62,0,2.43,0a4.71,4.71,0,0,0,0-9.42c-1.47,0-2.94,0-4.41,0a9.15,9.15,0,0,0-1.88.26A4.56,4.56,0,0,0,7.07,21.2a4.46,4.46,0,0,0,3.29,4.43A22.16,22.16,0,0,0,14.22,25.93Zm14.21-3.54h3.3c.87,0,1.39-.44,1.4-1.16S32.62,20,31.76,20H25.08c-.86,0-1.38.47-1.36,1.2s.53,1.15,1.4,1.15Z"/><path class="cls-6" d="M48.59,37.68l-1,0H2.41V33.06A5.62,5.62,0,0,1,3,33H52.28a1.62,1.62,0,0,1-.18.4c-.69.85-1.39,1.69-2.09,2.54Z"/><path class="cls-5" d="M36.09,44.75c-1.38,0-2.75,0-4.13,0-8.44,0-16.88-.07-25.32,0C4,44.85,2,43.2,2.4,40.12c.17,0,.36,0,.55,0H45l.37,0c-1.32.82-2.58,1.76-4,2.44C39.67,43.38,37.86,44,36.09,44.75Z"/><path class="cls-7" d="M36.09,44.75c1.77-.73,3.58-1.37,5.3-2.22,1.38-.68,2.64-1.62,4-2.44H56.74a3.65,3.65,0,0,1-3.65,4.69C47.42,44.78,41.75,44.76,36.09,44.75Z"/><path class="cls-8" d="M48.59,37.68,50,35.94c.7-.85,1.4-1.69,2.09-2.54a1.62,1.62,0,0,0,.18-.4c1.29,0,2.59,0,3.89,0,.49,0,.71.1.69.65,0,1.17,0,2.35,0,3.52,0,.42-.14.56-.55.56C53.73,37.69,51.16,37.69,48.59,37.68Z"/><path class="cls-7" d="M54,30.61c.64-1.41,1.29-2.82,1.92-4.24.24-.55.43-1.13.64-1.7.08.13.23.26.24.4,0,1.82,0,3.65,0,5.54Z"/><path class="cls-9" d="M66.39,51.9v7H4.77v-7ZM32,56.56h23.4c.93,0,1.47-.43,1.47-1.17s-.53-1.18-1.46-1.19H8.8a4.85,4.85,0,0,0-.66,0,1.17,1.17,0,0,0,0,2.33,5.93,5.93,0,0,0,.73,0Zm29.61,0h0c.47,0,.94,0,1.4,0a1.17,1.17,0,0,0,1.08-1.17A1.14,1.14,0,0,0,63,54.22q-1.32-.06-2.64,0a1.13,1.13,0,0,0-1.12,1.13,1.16,1.16,0,0,0,1.13,1.2C60.75,56.58,61.17,56.56,61.58,56.56Z"/><path class="cls-10" d="M68.74,61.33v2.26H2.39V61.33Z"/><path class="cls-11" d="M10.36,25.63A4.46,4.46,0,0,1,7.07,21.2a4.56,4.56,0,0,1,3.31-4.43,9.15,9.15,0,0,1,1.88-.26c1.47,0,2.94,0,4.41,0a4.71,4.71,0,0,1,0,9.42c-.81,0-1.62,0-2.43,0A22.16,22.16,0,0,1,10.36,25.63Zm3.93-6.77c-.81,0-1.63-.05-2.43,0A2.41,2.41,0,0,0,9.6,20.35a2.35,2.35,0,0,0,2.31,3.21c1.57,0,3.14,0,4.71,0a2.36,2.36,0,1,0,0-4.71C15.85,18.84,15.07,18.86,14.29,18.86Z"/><path class="cls-12" d="M28.43,22.39H25.12c-.87,0-1.39-.44-1.4-1.15s.5-1.2,1.36-1.2h6.68c.86,0,1.38.47,1.37,1.19s-.53,1.16-1.4,1.16Z"/><path class="cls-2" d="M32,56.56H8.86a5.93,5.93,0,0,1-.73,0,1.17,1.17,0,0,1,0-2.33,4.85,4.85,0,0,1,.66,0H55.38c.93,0,1.47.45,1.46,1.19s-.54,1.17-1.47,1.17Z"/><path class="cls-13" d="M61.58,56.56c-.41,0-.83,0-1.24,0a1.16,1.16,0,0,1-1.13-1.2,1.13,1.13,0,0,1,1.12-1.13q1.32-.06,2.64,0a1.14,1.14,0,0,1,1.09,1.16A1.17,1.17,0,0,1,63,56.55c-.46,0-.93,0-1.4,0Z"/><path class="cls-7" d="M14.29,18.86c.78,0,1.56,0,2.35,0a2.36,2.36,0,1,1,0,4.71c-1.57,0-3.14,0-4.71,0A2.35,2.35,0,0,1,9.6,20.35a2.41,2.41,0,0,1,2.26-1.48C12.66,18.81,13.48,18.86,14.29,18.86Z"/></g></g></g></svg>