<svg xmlns="http://www.w3.org/2000/svg" viewBox="0 0 87.29 76.44"><defs><style>.cls-1{fill:#f91d2f;}.cls-2{fill:#010c5e;}</style></defs><g id="Layer_2" data-name="Layer 2"><g id="Layer_1-2" data-name="Layer 1"><g id="DMT"><path class="cls-1" d="M59.43,37.19h8.75c-.1-1.2-.12-2.33-.3-3.45-.22-1.4-.54-2.79-.87-4.18a22.58,22.58,0,0,0-2.08-5.16,24.81,24.81,0,0,0-5.42-7A27.54,27.54,0,0,0,55,14.19a26.19,26.19,0,0,0-4.86-2,20.63,20.63,0,0,0-10-.53,21.25,21.25,0,0,0-6.29,2.08,25.48,25.48,0,0,0-6.59,5c-.1.1-.13.31-.23.35s-.48.12-.57,0c-1-1-2-2.09-3-3.14l-4.24-4.39c.46-.52.86-1,1.32-1.46a31.77,31.77,0,0,1,5.51-4.5C27,5.07,27.88,4.48,28.82,4,30,3.37,31.29,2.87,32.5,2.27A26.82,26.82,0,0,1,38.4.61,27.41,27.41,0,0,1,48.49.33,44.19,44.19,0,0,1,55.07,2a18,18,0,0,1,3.65,1.61A40.27,40.27,0,0,1,64,6.89,44.87,44.87,0,0,1,69.2,11.8a31.57,31.57,0,0,1,5,7.51c.31.64.91,1.83.91,1.83s.91,2.15,1.06,2.68a63.14,63.14,0,0,1,1.69,6.31c.37,2.06.42,4.18.61,6.27,0,.25,0,.49,0,.79h8.74a3.17,3.17,0,0,1-.25.62c-1.71,2.6-3.45,5.19-5.16,7.79-1.52,2.29-3,4.59-4.53,6.89L73.11,59c-.27.42-.52.85-.85,1.39Z"/><path class="cls-2" d="M27.86,39.23H19.11c.1,1.2.11,2.33.29,3.44.22,1.41.53,2.8.87,4.19A21.93,21.93,0,0,0,22.34,52a24.5,24.5,0,0,0,5.41,7,28.13,28.13,0,0,0,4.48,3.25,25.79,25.79,0,0,0,4.86,2,20.52,20.52,0,0,0,10,.55,21.14,21.14,0,0,0,6.29-2.07,25.55,25.55,0,0,0,6.6-4.95c.1-.1.13-.31.23-.35s.48-.12.57,0c1,1,2,2.08,3,3.13L68,64.9c-.46.52-.86,1-1.32,1.46a32.24,32.24,0,0,1-5.51,4.5c-.92.54-1.8,1.13-2.75,1.61-1.2.62-2.46,1.12-3.67,1.72a26.41,26.41,0,0,1-5.9,1.65,27.68,27.68,0,0,1-10.1.27,43.23,43.23,0,0,1-6.57-1.64,17.47,17.47,0,0,1-3.65-1.61,39.5,39.5,0,0,1-5.25-3.33,45,45,0,0,1-5.22-4.92,31.59,31.59,0,0,1-5-7.52c-.3-.64-.91-1.84-.91-1.84s-.9-2.15-1-2.67a63.81,63.81,0,0,1-1.68-6.31C9,44.21,9,42.09,8.77,40c0-.24,0-.49,0-.78L0,39.19a3.17,3.17,0,0,1,.25-.62C2,36,3.7,33.39,5.42,30.79Q7.7,27.36,10,23.9l4.25-6.48c.27-.41.52-.84.85-1.39Z"/><path class="cls-1" d="M32.16,38.64c.38,0,.69,0,1,0,1.77-.11,3.57-.12,5.32-.4a8.17,8.17,0,0,0,5.21-3.16,3.15,3.15,0,0,0,.78-2.34H31c.19-.33.3-.57.45-.78.58-.82,1.18-1.63,1.77-2.44l2.79,0h8A2.26,2.26,0,0,0,42.83,28a9.24,9.24,0,0,0-4.22-1.49c-2.28-.23-4.58-.3-6.87-.43-.23,0-.47,0-.79,0,.11-.21.16-.35.24-.47l.61-.87c.51-.71.87-1.68,1.56-2s1.66-.1,2.51-.1H56.11c-.78,1.22-1.5,2.37-2.25,3.49-.08.12-.35.15-.54.15H48c.47,1,.89,2,1.37,2.93.07.14.41.2.62.2,1.72,0,3.45,0,5.17,0H56c-.65,1-1.25,1.8-1.76,2.68a1.73,1.73,0,0,1-1.87,1c-.72-.08-1.46,0-2.2,0a.51.51,0,0,0-.62.45A9,9,0,0,1,44,39.63a17.33,17.33,0,0,1-5.88,1.43L51.67,56.79H50.38c-1.41,0-2.81,0-4.22,0a1.16,1.16,0,0,1-1-.42L36.79,47c-1.43-1.59-2.87-3.17-4.27-4.79a1.67,1.67,0,0,1-.35-.94C32.13,40.4,32.16,39.54,32.16,38.64Z"/></g></g></g></svg>