<svg xmlns="http://www.w3.org/2000/svg" viewBox="0 0 57.38 88.89"><defs><style>.cls-1{fill:#fff;}.cls-2,.cls-4{fill:#010c5e;}.cls-3{fill:#f91d2f;}.cls-4{font-size:8.7px;font-family:MyriadPro-Regular, Myriad Pro;}.cls-5{letter-spacing:-0.01em;}</style></defs><g id="Layer_2" data-name="Layer 2"><g id="Layer_1-2" data-name="Layer 1"><g id="Qr_pay" data-name="Qr pay"><path class="cls-1" d="M45.64,22.2V18.76h0l-2.58-6.89V7.56L42.2,3.25l-2.58-.86L37,1.53H15L13.3,3,12.06,4.12,11.2,6.7v29l.32,22.54S7.64,51.47,6,50.62c-2.66-1.4-4.31,2.58-2.59,5.17.93,1.38,8.44,10.07,10.34,10.33C18.12,66.71,31,68.71,31,68.71S41,67.14,41.34,67s6-6,6-6l.86-13.78L46.5,30.81Z"/><path class="cls-1" d="M16.09,54.49c1.75,1.62,2.64,5.59,1.31,7.3A3.36,3.36,0,0,1,15.15,63a6.32,6.32,0,0,1-3.71-.78c-2.78-2.14-4.95-5.07-7.87-7-1.85-1.2-.34-6,1.74-5.94-.73-.67-1.45-1.38-2.15-2.1-2.24-2.34-.83-8.67,2.52-7C4.39,39,2.78,37.51,1.74,36.47.89,35.62.56,34.25,0,33.12a6,6,0,0,1,5.1-5.6,10,10,0,0,1-3.27-2.47C0,22.85,0,20.59,1.72,18.58c1.46-1.67,6.55-2,8.12-.54a2.46,2.46,0,0,1,.42,1,2.65,2.65,0,0,1,0,.69v9.89a3.31,3.31,0,0,1,.26.27c1.94,2.06,3.83,4.19,5.67,6.35,2.27,2.68,2.5,5.5.66,7.37a4.52,4.52,0,0,1-1.92,1.17,1,1,0,0,1,.35.34A18,18,0,0,1,17.9,50,3.7,3.7,0,0,1,16.09,54.49Z"/><path class="cls-2" d="M54.69,88.89H23.9c-.37-2.61-.7-5.18-1.12-7.74A3.89,3.89,0,0,0,22,79.47c-3.61-4.64-7.26-9.24-10.86-13.87a31.22,31.22,0,0,1-1.69-2.92c.08-.11.27.12.35,0a12,12,0,0,1,2,1,8,8,0,0,0,5,1.78c7.23-.05,14.46,0,21.69,0a7.42,7.42,0,0,0,7.27-7.08c.06-6.74,0-13.49,0-20.24a4.39,4.39,0,0,0-.33-1.41c-1.16-3-2.39-6-3.48-9.06A12.66,12.66,0,0,1,41.3,24a5.48,5.48,0,0,1,4.17-5.66c.11.21.25.43.35.66,2.38,5.58,4.88,11.11,7.09,16.75a68.59,68.59,0,0,1,4.32,14.48,21.8,21.8,0,0,1-.55,7.51,128.63,128.63,0,0,0-2,29.71C54.7,87.88,54.69,88.36,54.69,88.89Z"/><path class="cls-2" d="M13.3,62.46a6.89,6.89,0,0,0,2.23-6.07c6.29.42,12.52.1,18.75.2h2.15C40,56.58,42,54.67,42,51.07c0-4.56,0-9.12,0-13.68a4.26,4.26,0,0,1,.13-1.26c.84,2.37,2.39,4.45,2.36,7.14-.06,4.29.06,8.59,0,12.89A10.54,10.54,0,0,1,44,59.27,5.09,5.09,0,0,1,39.1,63c-7.76.05-15.52,0-23.27,0A14.24,14.24,0,0,1,13.3,62.46ZM29,59.76a1.52,1.52,0,1,0-1.55,1.47A1.53,1.53,0,0,0,29,59.76Z"/><path class="cls-2" d="M41.92,16.57c0-.57,0-1,0-1.36,0-2.71.06-5.44-.16-8.13A4.49,4.49,0,0,0,37,2.7c-6.48-.05-13-.06-19.43,0a4.66,4.66,0,0,0-4.76,4.75c-.1,1.73,0,3.47,0,5.2V32.07c-1.14-1.32-2.52-2-2.49-4,.12-7,0-13.95,0-20.92a12.86,12.86,0,0,1,.24-2.7A5.29,5.29,0,0,1,15.93,0Q27.35,0,38.76,0a5.28,5.28,0,0,1,5.46,5.1c.22,3.12.13,6.25.14,9.38a1.05,1.05,0,0,1-.38.73C43.38,15.69,42.73,16.06,41.92,16.57Z"/><path class="cls-2" d="M2.2,33.61a3.79,3.79,0,0,1,5.37-3.34,6.12,6.12,0,0,1,1.6,1.22c1.28,1.37,2.53,2.78,3.75,4.21,1.51,1.77,1.65,3.64.44,4.87s-3.27,1.24-5-.21-3.42-2.94-5-4.53A7.91,7.91,0,0,1,2.2,33.61Z"/><path class="cls-2" d="M4.56,41a15.89,15.89,0,0,0,2.5,1.86c1.26.61,2.64,1,4,1.44a2.66,2.66,0,0,1,1.3.69A12,12,0,0,1,14,48.23a2.51,2.51,0,0,1-3.21,3.13,5.2,5.2,0,0,1-2-.91,52.86,52.86,0,0,1-4.51-4.08C2.53,44.54,2.7,42.49,4.56,41Z"/><path class="cls-2" d="M4.78,50.77a19.79,19.79,0,0,0,3,2.15,27.49,27.49,0,0,0,4,1.27c.17.06.39,0,.55.06,1.48.66,2.39,3.89,1.39,5.18a2.24,2.24,0,0,1-1.49.82,4.17,4.17,0,0,1-2.46-.52,43.15,43.15,0,0,1-5.21-4.61C3.32,53.79,3.56,52.1,4.78,50.77Z"/><path class="cls-2" d="M9,27.49C7,26.38,4.83,26,3.41,24.28A3,3,0,0,1,3.34,20c1-1.1,4.33-1.33,5.37-.35a1.6,1.6,0,0,1,.28.68,2.26,2.26,0,0,1,0,.45Z"/><path class="cls-1" d="M29,59.76a1.52,1.52,0,1,1-1.48-1.53A1.52,1.52,0,0,1,29,59.76Z"/><path class="cls-3" d="M37.89,36.21H17.36V14.3H37.89Zm-1.42-1.54V21.61H31V15.83H24.21v5.81H18.78v7.24h5.45v5.79ZM18.78,20.08h4V15.81h-4Zm13.7-4.27v4.26h4V15.81ZM18.77,34.67h4V30.41h-4Z"/><path class="cls-1" d="M36.47,34.67H24.23V28.88H18.78V21.64h5.43V15.83H31v5.78h5.47Zm-10.91-13h3.9a.34.34,0,0,0,.24-.21c0-.42,0-.84,0-1.31H27V17.21H25.56Zm8.21,2.93v2.88h1.39V23.06h-2.7v1.49Zm-5.46,1.39v4.41h1.4c0-1.42,0-2.8,0-4.18,0-.08-.15-.21-.23-.22C29.1,25.93,28.72,25.94,28.31,25.94Zm-4.08-1.4c0-.42,0-.78,0-1.13s-.1-.4-.38-.4c-1.15,0-2.3,0-3.44,0-.11,0-.21,0-.35,0,0,.43,0,.83,0,1.22,0,.09.16.25.24.25ZM27,27.46c0-1.44,0-2.82,0-4.19,0-.08-.11-.23-.18-.23-.4,0-.81,0-1.24,0,0,1.43,0,2.8,0,4.16a.38.38,0,0,0,.23.26C26.15,27.47,26.52,27.46,27,27.46Zm0,3.64V30c0-1.12,0-1.11-1-1.11-.3,0-.41.09-.4.43,0,1,0,1.94,0,2.91,0,1.16,0,1.16,1.1,1.12.24,0,.34-.08.33-.35C27,32.34,27,31.72,27,31.1Zm6.83-2.21V33.3c.37,0,.71,0,1.06,0s.33-.09.33-.36c0-.89,0-1.79,0-2.69V28.89ZM28.28,33.3h3.14c1.1,0,1.09,0,1-1.19,0-.25-.09-.34-.31-.34H28.58c-.2,0-.31,0-.3.29S28.28,32.84,28.28,33.3ZM31,23c-.88,0-1.69,0-2.5,0a.33.33,0,0,0-.24.24c0,.41,0,.81,0,1.24H31c0-.17,0-.32,0-.46C31.05,23.73,31,23.41,31,23Zm1.38,2.92c-.41,0-.77,0-1.12,0-.09,0-.26.11-.26.18,0,.44,0,.87,0,1.33h1.42V26.38C32.45,26.25,32.43,26.12,32.42,25.94ZM31,30.38c.44,0,.81,0,1.18,0a.38.38,0,0,0,.24-.25c.15-1.16-.07-1.4-1.16-1.25a.34.34,0,0,0-.24.25C31,29.51,31,29.91,31,30.38Zm-9.57-2.95V26H20.09v1.45ZM24.21,26H22.83v1.44h1.38Z"/><path class="cls-1" d="M18.78,20.08V15.81h4v4.27Zm2.71-1.4c0-.44,0-.83,0-1.21,0-.1-.11-.26-.18-.27-.4,0-.81,0-1.21,0v1.49Z"/><path class="cls-1" d="M32.48,15.81h4v4.26h-4Zm2.68,1.37c-.4,0-.79,0-1.17,0-.08,0-.21.14-.22.22,0,.41,0,.82,0,1.25h1.43V17.58C35.19,17.46,35.17,17.35,35.16,17.18Z"/><path class="cls-1" d="M18.77,34.67V30.41h4v4.26Zm2.72-1.37c0-.46,0-.86,0-1.25a.34.34,0,0,0-.23-.26c-1.12-.17-1.21-.08-1.18,1.11,0,.05,0,.11,0,.13s.16.25.25.26C20.67,33.32,21.05,33.3,21.49,33.3Z"/><path class="cls-3" d="M25.56,21.62V17.21H27v2.88h2.76c0,.47,0,.89,0,1.31a.34.34,0,0,1-.24.21Z"/><path class="cls-3" d="M33.77,24.55H32.46V23.06h2.7v4.37H33.77Z"/><path class="cls-3" d="M28.31,25.94c.41,0,.79,0,1.16,0,.08,0,.23.14.23.22,0,1.38,0,2.76,0,4.18h-1.4Z"/><path class="cls-3" d="M24.23,24.54H20.31c-.08,0-.23-.16-.24-.25,0-.39,0-.79,0-1.22.14,0,.24,0,.35,0,1.14,0,2.29,0,3.44,0,.28,0,.4.09.38.4S24.23,24.12,24.23,24.54Z"/><path class="cls-3" d="M27,27.46c-.45,0-.82,0-1.19,0a.38.38,0,0,1-.23-.26c0-1.36,0-2.73,0-4.16.43,0,.84,0,1.24,0,.07,0,.18.15.18.23C27,24.64,27,26,27,27.46Z"/><path class="cls-3" d="M27,31.1c0,.62,0,1.24,0,1.86,0,.27-.09.34-.33.35-1.1,0-1.1,0-1.1-1.12,0-1,0-1.95,0-2.91,0-.34.1-.43.4-.43,1,0,1,0,1,1.11Z"/><path class="cls-3" d="M33.8,28.89h1.39v1.37c0,.9,0,1.8,0,2.69,0,.27-.08.37-.33.36s-.69,0-1.06,0Z"/><path class="cls-3" d="M28.28,33.3c0-.46,0-.84,0-1.23s.1-.29.3-.29h3.56c.22,0,.3.09.31.34.06,1.19.07,1.19-1,1.19H28.28Z"/><path class="cls-3" d="M31,23c0,.39,0,.71,0,1,0,.14,0,.29,0,.46H28.28c0-.43,0-.83,0-1.24a.33.33,0,0,1,.24-.24C29.35,23,30.16,23,31,23Z"/><path class="cls-3" d="M32.42,25.94c0,.18,0,.31,0,.44v1.08H31c0-.46,0-.89,0-1.33,0-.07.17-.18.26-.18C31.65,25.93,32,25.94,32.42,25.94Z"/><path class="cls-3" d="M31,30.38c0-.47,0-.87,0-1.26a.34.34,0,0,1,.24-.25c1.09-.15,1.31.09,1.16,1.25a.38.38,0,0,1-.24.25C31.83,30.39,31.46,30.38,31,30.38Z"/><path class="cls-3" d="M21.45,27.43H20.09V26h1.36Z"/><path class="cls-3" d="M24.21,26v1.44H22.83V26Z"/><path class="cls-3" d="M21.49,18.68h-1.4V17.19c.4,0,.81,0,1.21,0,.07,0,.17.17.18.27C21.5,17.85,21.49,18.24,21.49,18.68Z"/><path class="cls-3" d="M35.16,17.18c0,.17,0,.28,0,.4v1.09H33.76c0-.43,0-.84,0-1.25,0-.08.14-.22.22-.22C34.37,17.17,34.76,17.18,35.16,17.18Z"/><path class="cls-3" d="M21.49,33.3c-.44,0-.82,0-1.18,0-.09,0-.17-.16-.25-.26s0-.08,0-.13c0-1.19.06-1.28,1.18-1.11a.34.34,0,0,1,.23.26C21.5,32.44,21.49,32.84,21.49,33.3Z"/><text class="cls-4" transform="translate(16.71 47.57) scale(0.89 1)">QR p<tspan class="cls-5" x="17.48" y="0">a</tspan><tspan x="21.61" y="0">y</tspan></text></g></g></g></svg>