<svg xmlns="http://www.w3.org/2000/svg" viewBox="0 0 56 92.48"><defs><style>.cls-1{fill:#010c5e;}.cls-2{fill:#fff;}.cls-3{fill:#f91d2f;}</style></defs><g id="Layer_2" data-name="Layer 2"><g id="Layer_1-2" data-name="Layer 1"><g id="rescharge"><rect class="cls-1" width="56" height="92.48" rx="10.01"/><rect class="cls-2" x="4.24" y="5.09" width="47.52" height="73.82" rx="4.58"/><circle class="cls-2" cx="28" cy="85.7" r="4.24"/><path class="cls-3" d="M16.6,39.45c.39,0,.71,0,1,0,1.83-.12,3.67-.13,5.46-.42a8.35,8.35,0,0,0,5.35-3.24,3.23,3.23,0,0,0,.81-2.4H15.41c.19-.34.3-.58.45-.8.6-.84,1.22-1.67,1.82-2.5,1,0,1.91,0,2.86,0,2.48,0,5,0,7.44,0h.73a2.39,2.39,0,0,0-1.16-1.51A9.43,9.43,0,0,0,23.22,27c-2.34-.24-4.7-.31-7-.45-.24,0-.49,0-.82,0,.11-.21.17-.35.25-.47.2-.31.41-.61.62-.9.52-.73.9-1.72,1.6-2.1s1.71-.1,2.58-.1H41.18c-.8,1.26-1.54,2.43-2.31,3.59-.08.12-.36.15-.55.15H32.9c.48,1.05.91,2,1.41,3,.07.14.41.2.63.21,1.77,0,3.53,0,5.3,0h.83c-.67,1-1.29,1.85-1.81,2.76a1.77,1.77,0,0,1-1.92,1c-.74-.08-1.5,0-2.25,0a.54.54,0,0,0-.65.46,9.29,9.29,0,0,1-5.71,6.3,17.74,17.74,0,0,1-6,1.47L36.62,58.08H35.29c-1.44,0-2.88,0-4.32,0a1.17,1.17,0,0,1-1-.44L21.35,48c-1.46-1.63-2.94-3.25-4.38-4.91a1.69,1.69,0,0,1-.35-1C16.57,41.26,16.6,40.37,16.6,39.45Z"/></g></g></g></svg>