<svg xmlns="http://www.w3.org/2000/svg" viewBox="0 0 73.36 77.4"><defs><style>.cls-1{fill:#010c5e;}.cls-2{fill:none;stroke:#f91d2f;stroke-miterlimit:10;stroke-width:6px;}.cls-3{fill:#f91d2f;}</style></defs><g id="Layer_2" data-name="Layer 2"><g id="Layer_1-2" data-name="Layer 1"><g id="Settlements"><g id="finger_print" data-name="finger print"><path class="cls-1" d="M34.87,75.56c-1.43-.2-4.59-.68-5.47-.78a6.34,6.34,0,0,1,.6-1.32q.81-1,1.56-2.07A25.6,25.6,0,0,0,34.87,75.56Z"/><path class="cls-1" d="M61.4,26.34c-.27,2.09-.51,4.16-.76,6.25a25.84,25.84,0,0,0-5.15-.93c.33-2.54.62-5.09.83-7.65A18.08,18.08,0,0,0,44.44,5.8c-.62-.24-1.24-.46-1.83-.75A2.47,2.47,0,0,1,41.2,1.92,2.65,2.65,0,0,1,44.39.28,22.9,22.9,0,0,1,54.45,6.06,23.42,23.42,0,0,1,61.4,26.34Z"/><path class="cls-1" d="M28.92,65.89a57.31,57.31,0,0,1-4.4,5.94c-.9,1-1.79,1.52-3.16.85a38.91,38.91,0,0,0-3.65-1.38c.4-.48.62-.81.9-1.08A41,41,0,0,0,27.53,57.6,25.84,25.84,0,0,0,28.92,65.89Z"/><path class="cls-1" d="M40.57,24.68c-.38,3.76-.84,7.51-1.44,11.22a26,26,0,0,0-6.49,6.16c1.23-5.84,1.92-11.78,2.8-17.69.12-.75.22-1.51.38-2.25a2.13,2.13,0,0,1,2.52-1.71,2.27,2.27,0,0,1,2.22,2.14A10.83,10.83,0,0,1,40.57,24.68Z"/><path class="cls-1" d="M50.62,29c-.11.92-.2,1.84-.31,2.77A25.43,25.43,0,0,0,44.91,33v-.14c.08-1.26.32-2.52.44-3.79.17-1.92.3-3.85.43-5.78A7.54,7.54,0,0,0,40,15.43c-4.42-.85-8.07,1.16-9.29,5.14-.28.92-.46,1.87-.69,2.81-.36,1.5-1.23,2.22-2.53,2.13A2.53,2.53,0,0,1,25,22.9c0-8.33,7.46-13.5,13.49-12.92,6.87.67,11.73,4.9,12.45,11.27A39.89,39.89,0,0,1,50.62,29Z"/><path class="cls-1" d="M13.35,28.69c1.1-5.86,1.32-10.16,2.76-14A22.87,22.87,0,0,1,32.07.17c1.82-.51,3.13.16,3.61,1.63a2.26,2.26,0,0,1-1.34,3c-1.25.57-2.58,1-3.82,1.54A17.81,17.81,0,0,0,20,20.52c-.62,4-1,8.09-1.56,12.12a55.94,55.94,0,0,1-1.27,6,2.38,2.38,0,0,1-2.84,1.91,2.59,2.59,0,0,1-2-3C12.69,34,13.14,30.47,13.35,28.69Z"/><path class="cls-1" d="M8,66a27.29,27.29,0,0,1,2.12-2.22C15.5,59.33,18.4,53.41,20.42,47c.8-2.57,1.45-5.19,2.16-7.78,0-.15.05-.31.1-.45.55-2,1.75-3.1,3.17-2.83s2.34,1.68,1.9,3.87c-1.45,7.16-3.51,14.16-7.54,20.31-1.89,2.89-4.56,5.28-7,7.83a1.76,1.76,0,0,1-1.58.3C10.46,67.61,9.35,66.8,8,66Z"/><path class="cls-1" d="M0,59.17c.92-1,1.69-1.79,2.44-2.6,1.58-1.71,3.18-3.4,4.72-5.14,1.21-1.36,2.48-1.68,3.71-.82a2.49,2.49,0,0,1,.57,3.62,25.43,25.43,0,0,1-3,3.83C7,59.61,5.43,61,3.78,62.61Z"/></g><polyline class="cls-2" points="53.05 47.21 53.05 59.76 58.79 63.55"/><path class="cls-3" d="M53.46,77.4a19.89,19.89,0,1,1,19.9-19.89A19.91,19.91,0,0,1,53.46,77.4Zm0-34.81A14.92,14.92,0,1,0,68.38,57.51,14.93,14.93,0,0,0,53.46,42.59Z"/></g></g></g></svg>