<svg xmlns="http://www.w3.org/2000/svg" viewBox="0 0 110.81 83.85"><defs><style>.cls-1{fill:#010c5e;}.cls-2{fill:#f91d2f;}</style></defs><g id="Layer_2" data-name="Layer 2"><g id="Layer_1-2" data-name="Layer 1"><g id="travel"><path class="cls-1" d="M81.15,30.62A26.16,26.16,0,0,1,79.85,45,50.59,50.59,0,0,1,72,58.25c-4.15,5.2-8.5,10.24-12.65,15.44-2.64,3.31-5.08,6.78-7.6,10.16C51,82.68,50.21,81.27,49.23,80c-4.07-5.12-8.2-10.19-12.3-15.29l-7-8.76c2.69-.69,5.24-1.29,7.76-2,1.6-.45,3.15-1.05,4.74-1.53a1.6,1.6,0,0,1,1.06,0,18.67,18.67,0,0,0,24.61-7.43,4.71,4.71,0,0,1,.82-1,6.46,6.46,0,0,0,2-4.76c0-1.22,0-2.44,0-3.66a1,1,0,0,1,.44-.75c3.14-1.44,6.31-2.84,9.47-4.25A1.1,1.1,0,0,1,81.15,30.62Z"/><path class="cls-1" d="M77.73,21.26l-9.46,5.65a18.78,18.78,0,0,0-12.84-9.32,18.12,18.12,0,0,0-12,1.69A18.73,18.73,0,0,0,33.93,41L23.38,43.87c-.38-1.81-.85-3.43-1-5.09A29.68,29.68,0,0,1,77.56,20.92Z"/><path class="cls-2" d="M18.56,13.83c-1.72,1.51-3.49,3-5.16,4.53a42.85,42.85,0,0,0-10,13,14.72,14.72,0,0,0-1.6,6.73,7.33,7.33,0,0,0,1,3.61c.12-.46.2-.8.28-1.13A26.27,26.27,0,0,1,8.7,30.36,69.27,69.27,0,0,1,21,19s.1,0,.29,0c-.29.24-.5.43-.72.6A58.12,58.12,0,0,0,8.7,32a23.61,23.61,0,0,0-4,8.62c-.05.24-.08.49-.11.74C4.31,44,4.11,43.82,6.74,45a20.94,20.94,0,0,0,10.68,1.45c12-1,23-5.37,33.51-11,2.47-1.32,4.84-2.8,7.37-4.28l2.08,2.36a.53.53,0,0,1-.12.9c-1.23.85-2.42,1.76-3.7,2.53A90.7,90.7,0,0,1,29,48.3a51.4,51.4,0,0,1-14.94,1.22A24.74,24.74,0,0,1,10,48.85c-1.34-.32-2.63-.83-4.2-1.34a22.28,22.28,0,0,0,1.78,1.64,14.11,14.11,0,0,0,7.32,2.43c6.73.64,13.18-.8,19.53-2.74A106.82,106.82,0,0,0,59.05,37.53a16.65,16.65,0,0,1,3-1.11c.27,1.17.53,2.15.69,3.14,0,.21-.3.54-.54.7A94.42,94.42,0,0,1,47,48.51a77.66,77.66,0,0,1-19,5.65c-5.32.82-10.65,1.11-15.93-.29a13,13,0,0,1-7.5-4.62,4.78,4.78,0,0,1-.85-1.41A23.53,23.53,0,0,0,1.2,43C-.55,40-.17,36.77,1,33.64a29.86,29.86,0,0,1,5.59-9.08A65.6,65.6,0,0,1,18.56,13.83Z"/><path class="cls-2" d="M65.58,43.77c-.23-1.17-.43-2.25-.64-3.32-.28-1.38-.58-2.76-.87-4.14-.12-.58-.43-.72-1-.58-1.22.31-2.46.54-3.69.8l-.16-.29c.71-.67,1.4-1.36,2.13-2,1.28-1.15,1.31-1.17.13-2.46s-2.24-2.31-3.36-3.46c-.38-.4-.74-.82-1.1-1.22a3.85,3.85,0,0,1,4.52-.75,34.78,34.78,0,0,1,3.36,2.15C67,29.92,67,30,69.09,28.71q6.36-3.78,12.66-7.65c1.18-.72,1.16-.76.58-2a29.24,29.24,0,0,0-7.26-9.71c-2.81-2.49-5.49-5.1-8.23-7.65a3.53,3.53,0,0,0-.76-.45,3.5,3.5,0,0,1,4.2-.87c2.29,1.41,4.55,2.87,6.78,4.36q3.6,2.4,7.13,4.9a1.52,1.52,0,0,0,2,.1c1.09-.75,2.34-1.26,3.5-1.91a.75.75,0,0,1,1.16.33c1.77,3.06,1.6,2.52-1.07,3.92-.31.17-.65.3-1.15.53.68.44,1.27.78,1.81,1.17,2.17,1.57,4.19,1.78,6.54.09a51.77,51.77,0,0,1,6.62-3.64,9.88,9.88,0,0,1,6.3-.9c1,.16,1.07.38.63,1.27a9.56,9.56,0,0,1-4.3,4.6c-3,1.53-6.1,3-9.15,4.53a1.64,1.64,0,0,0-.69.55A14.78,14.78,0,0,0,95.8,26c.86-.46,1.72-.89,2.56-1.36a.81.81,0,0,1,1.28.39c1.68,3.07,1.47,2.44-1,3.82a22,22,0,0,1-2.42,1.11.88.88,0,0,0-.68.95c0,3.66-.07,7.33-.17,11,0,2.13-.19,4.26-.33,6.39a3.71,3.71,0,0,1-2.89,2.87l-.57-3.89c-.6-4.14-1.1-8.29-1.85-12.4a25.94,25.94,0,0,0-3.38-7.91c-.34-.59-.75-.4-1.2-.21q-5.79,2.49-11.59,5c-1.21.53-2.4,1.13-3.62,1.66a1.25,1.25,0,0,0-.9,1.23c0,1.64-.08,3.27-.13,4.91a4.49,4.49,0,0,1-2.27,3.83A5.82,5.82,0,0,1,65.58,43.77Z"/></g></g></g></svg>