<svg xmlns="http://www.w3.org/2000/svg" viewBox="0 0 77.31 109.56"><defs><style>.cls-1{fill:#010c5e;}.cls-2{fill:#f91d2f;}.cls-3{fill:#fff;}</style></defs><g id="Layer_2" data-name="Layer 2"><g id="Layer_1-2" data-name="Layer 1"><g id="virtual_ac" data-name="virtual ac"><path class="cls-1" d="M71,55.06c0,15.32-.1,30.63.06,46,0,5.24-3.66,8.58-8.57,8.55-16-.1-32,0-48.06,0-5,0-8.25-3.22-8.25-8.26q0-46.59,0-93.17A7.76,7.76,0,0,1,14.28,0q24,0,48.06,0C68,0,71.05,3.1,71.05,8.82V55.06ZM38.5,76.74h0c5.15,0,10.31,0,15.46,0a6,6,0,0,0,6.35-6.22q.09-10.33,0-20.66a6,6,0,0,0-6-6,18.77,18.77,0,0,0-2.25,0c-.91.06-1.24-.3-1.23-1.21,0-2.35,0-4.69,0-7,0-1.59-.43-2.1-1.95-2.11-8.48,0-17-.06-25.44.07-3.94.06-6.51,2.86-6.52,6.81q-.06,15,0,30.07c0,3.83,2.54,6.29,6.38,6.3C28.38,76.75,33.44,76.74,38.5,76.74Zm.09-68H52.9a4.89,4.89,0,0,0,1.8-.06c.56-.23,1.3-.79,1.33-1.26S55.41,6.28,54.89,6A4.54,4.54,0,0,0,53,5.88l-29.18,0c-.47,0-1-.13-1.37.09-.52.34-1.2.93-1.19,1.41s.74,1,1.26,1.32c.25.17.72,0,1.1,0Zm.22,92h0c-2.53,0-5.05,0-7.57,0-1,0-1.84.36-1.84,1.46s.77,1.49,1.8,1.49q7.36,0,14.72,0c1.06,0,1.9-.31,1.87-1.55S47,100.77,46,100.78C43.57,100.79,41.19,100.78,38.81,100.78Z"/><path class="cls-1" d="M74,46.13V43.69C74,38.55,74,33.4,74,28.26c0-.71-.35-1.67,1-1.68s2.16.45,2.33,1.64a5.56,5.56,0,0,1,0,.71c0,4.91,0,9.82-.06,14.73C77.23,46.08,76.71,46.45,74,46.13Z"/><path class="cls-2" d="M3.17,32.1c-1.26.17-2.64.35-3-.85a7.05,7.05,0,0,1,.18-4c.38-1,1.71-.81,2.78-.54Z"/><path class="cls-2" d="M3.18,40.79v5.36c-1.07.19-2.4.52-2.79-.55a7.1,7.1,0,0,1-.16-4C.57,40.28,2,40.75,3.18,40.79Z"/><path class="cls-3" d="M38.5,76.74c-5.06,0-10.12,0-15.18,0-3.84,0-6.37-2.47-6.38-6.3q0-15,0-30.07c0-4,2.58-6.75,6.52-6.81,8.48-.13,17-.08,25.44-.07,1.52,0,1.94.52,1.95,2.11,0,2.34,0,4.68,0,7,0,.91.32,1.27,1.23,1.21a18.77,18.77,0,0,1,2.25,0,6,6,0,0,1,6,6q.11,10.34,0,20.66A6,6,0,0,1,54,76.75c-5.15,0-10.31,0-15.46,0ZM19.88,46.15c0,.19-.05.61,0,1q0,11.46,0,22.91c0,2.65,1.11,3.73,3.77,3.73h29.8c2.85,0,4-1.11,4-4q0-9.42,0-18.83c0-3.19-1-4.23-4.18-4.23-9.41,0-18.83,0-28.25,0A51,51,0,0,1,19.88,46.15ZM35,43.83h0c3.88,0,7.76,0,11.64,0,1,0,1.35-.31,1.32-1.29,0-1.59-.06-3.19,0-4.77,0-1.11-.35-1.45-1.45-1.45-7.48,0-15,0-22.45,0-2.63,0-4.26,1.52-4.24,3.83s1.62,3.65,4.21,3.65C27.71,43.84,31.36,43.83,35,43.83Z"/><path class="cls-3" d="M38.59,8.77h-15c-.38,0-.85.13-1.1,0-.52-.35-1.26-.87-1.26-1.32S21.89,6.33,22.41,6c.33-.22.9-.09,1.37-.09L53,5.88A4.54,4.54,0,0,1,54.89,6c.52.25,1.18,1,1.14,1.42s-.77,1-1.33,1.26a4.89,4.89,0,0,1-1.8.06Z"/><path class="cls-3" d="M38.81,100.78c2.38,0,4.76,0,7.15,0,1,0,1.81.22,1.83,1.41s-.81,1.55-1.87,1.55q-7.35,0-14.72,0c-1,0-1.81-.41-1.8-1.49s.81-1.46,1.84-1.46c2.52,0,5,0,7.57,0Z"/><path class="cls-2" d="M19.88,46.15a51,51,0,0,0,5.09.56c9.42,0,18.84,0,28.25,0,3.17,0,4.19,1,4.18,4.23q0,9.41,0,18.83c0,2.88-1.12,4-4,4H23.62c-2.66,0-3.76-1.08-3.77-3.73q0-11.44,0-22.91C19.83,46.76,19.87,46.34,19.88,46.15ZM43.07,60.2a5.17,5.17,0,0,0,5.13,5.33,5.27,5.27,0,0,0,5.36-5.15A5.34,5.34,0,0,0,48.37,55,5.23,5.23,0,0,0,43.07,60.2Z"/><path class="cls-2" d="M35,43.83c-3.65,0-7.3,0-10.95,0-2.59,0-4.2-1.4-4.21-3.65s1.61-3.82,4.24-3.83c7.48,0,15,0,22.45,0,1.1,0,1.5.34,1.45,1.45-.08,1.58-.07,3.18,0,4.77,0,1-.36,1.3-1.32,1.29-3.88,0-7.76,0-11.64,0Z"/><path class="cls-3" d="M43.07,60.2A5.23,5.23,0,0,1,48.37,55a5.34,5.34,0,0,1,5.19,5.36,5.27,5.27,0,0,1-5.36,5.15A5.17,5.17,0,0,1,43.07,60.2Zm5.27,2.39a2.34,2.34,0,0,0,2.29-2.33,2.39,2.39,0,0,0-2.32-2.32A2.29,2.29,0,0,0,46,60.36,2.24,2.24,0,0,0,48.34,62.59Z"/><path class="cls-1" d="M48.34,62.59A2.24,2.24,0,0,1,46,60.36a2.29,2.29,0,0,1,2.31-2.42,2.39,2.39,0,0,1,2.32,2.32A2.34,2.34,0,0,1,48.34,62.59Z"/></g></g></g></svg>