<svg xmlns="http://www.w3.org/2000/svg" viewBox="0 0 87.8 69.96"><defs><style>.cls-1{fill:#010c5e;}.cls-2{fill:#f91d2f;}.cls-3{fill:#fff;}</style></defs><g id="Layer_2" data-name="Layer 2"><g id="Layer_1-2" data-name="Layer 1"><g id="Wallet_pay" data-name="Wallet pay"><path class="cls-1" d="M48.73,25.36c2.33,0,4.65,0,7,.05a7.13,7.13,0,0,1,6.89,6.06,23.43,23.43,0,0,1,.12,3.25c0,2.1-.07,25.28-.14,28.05a7.23,7.23,0,0,1-6.32,7.11,22.59,22.59,0,0,1-3.19,0l-12.57,0-17.83-.11-6.92,0c-3.08,0-6.16,0-9.24-.11a6.49,6.49,0,0,1-5.93-4A7.2,7.2,0,0,1,0,62.43c0-2.84,0-5.67,0-8.51,0-1.44,0-2.88.06-4.32,0-2.68,0-5.36,0-8.05q0-6.72,0-13.44c0-.79,0-1.59,0-2.39a3.32,3.32,0,0,1,.13-.61l2.93.05,14.1.08,5.65,0c2.64,0,5.28,0,7.92,0l8.12.05,6.1,0Z"/><path class="cls-2" d="M48.73,25.36l-3.59,0-6.1,0-8.12-.05c-2.64,0-5.28,0-7.92,0l-5.65,0-14.1-.08L.32,25.11c.91-.59,1.81-1.19,2.73-1.76l11.38-7.09L27,8.48c3.19-2,6.37-4,9.57-6A33.15,33.15,0,0,1,39.65.64a6.4,6.4,0,0,1,8.43,2.83,6.22,6.22,0,0,1,.71,2.87c0,3.35,0,6.7,0,10,0,2.82,0,5.63,0,8.45C48.7,25,48.72,25.18,48.73,25.36Z"/><rect class="cls-3" x="31.38" y="32.21" width="56.42" height="31.65" rx="6.99"/><path class="cls-2" d="M81.1,43.4V58.53a1.94,1.94,0,0,1-.65,1.17,1.92,1.92,0,0,1-1.33.46H50.8a.71.71,0,0,1-.26-.06,2.55,2.55,0,0,1-1.45-2.29,2.76,2.76,0,0,1,1.58-2.2,3,3,0,0,1,1.41-.33h.11a2.43,2.43,0,0,0,.23-4.75l-.15,0H39.55a2.59,2.59,0,0,1,.24-5.13H78.57a2.84,2.84,0,0,0,1.59-.58A2.78,2.78,0,0,0,81.1,43.4Z"/><path class="cls-2" d="M46,35.65H79a2.33,2.33,0,0,1-.17,4.65H46a2.33,2.33,0,0,1,0-4.65Z"/><circle class="cls-2" cx="43.59" cy="57.89" r="2.53"/></g></g></g></svg>