<svg width="85" height="28" viewBox="0 0 85 28" fill="none" xmlns="http://www.w3.org/2000/svg">
<path d="M24.648 2.62471C24.4752 2.48013 22.5794 1 18.9939 1C15.7225 1 12.1323 2.23174 8.32533 4.65629L8.20219 4.73137L8.17641 4.74434C8.07236 4.81015 7.96449 4.87595 7.84326 4.95102C7.75448 5.01312 7.66093 5.07151 7.54924 5.13731C6.76934 5.6554 6.02762 6.20593 5.33362 6.79539C3.72703 8.31259 1.8923 10.8326 2.00494 12.9819C2.05649 13.8902 2.44596 14.6335 3.16382 15.184C3.81677 15.678 4.63104 15.9273 5.58564 15.9273C7.53302 15.9273 9.66845 14.8995 11.1328 14.0246C11.2264 13.969 11.3161 13.9096 11.4135 13.8475C11.6683 13.6863 11.9194 13.5167 12.1762 13.3526L12.4272 13.1886C14.5044 11.8354 16.6532 10.4369 19.0789 9.62403C19.7032 9.40808 20.253 9.30614 20.759 9.30614C21.0043 9.30614 21.2506 9.33579 21.4797 9.38862C22.2205 9.55267 22.7608 9.96232 23.0863 10.6009C23.6447 11.7112 23.5139 13.4675 22.7474 15.0635C21.7031 17.2554 19.9113 19.4047 17.4274 21.4697C16.1616 22.5281 14.9875 23.3344 13.946 23.884L13.8515 23.9332C13.3666 24.1955 12.8196 24.4865 12.2392 24.6959L12.159 24.7256C11.9891 24.7905 11.8459 24.8396 11.7056 24.885C9.28088 25.5217 10.7576 23.4373 10.7576 23.4373C11.297 22.8182 11.8325 22.3233 12.4206 21.8024C12.7461 21.5077 13.085 21.1972 13.4305 20.8626L13.505 20.7866C13.9269 20.3742 14.5178 19.8098 14.4777 18.9979C14.429 17.9228 13.2997 17.2545 12.2468 17.2212H12.1676C11.1519 17.2212 10.1944 17.805 9.56154 18.2898C8.93246 18.7819 8.26328 19.5122 7.81462 20.2074C7.17122 21.2 5.80806 23.7422 7.13495 25.7738C7.6657 26.5866 8.55253 27 9.76677 27C10.6154 27 11.6216 26.7933 12.7594 26.3994C14.4538 25.8072 15.797 24.9786 17.0933 24.1825L17.4475 23.9693C18.8192 23.1305 20.1576 22.1509 21.5379 20.9775C24.5936 18.3889 26.4226 15.8439 27.4707 12.7381C27.8974 11.4823 28.4988 9.02531 27.7638 6.72495C27.2197 5.0437 26.1734 3.6646 24.6499 2.62656L24.648 2.62471Z" fill="white"/>
<path d="M33.5749 24.5208V17.4466H36.9283C37.5865 17.4466 38.1266 17.6272 38.5487 17.9883C38.9707 18.346 39.1818 18.8097 39.1818 19.3792C39.1818 19.5529 39.1514 19.7317 39.0906 19.9158C39.0298 20.0964 38.9225 20.2769 38.7686 20.4575C38.6148 20.6346 38.427 20.7631 38.2053 20.843C38.5987 20.9889 38.901 21.2146 39.112 21.5202C39.3231 21.8258 39.4286 22.1714 39.4286 22.5569C39.4286 23.1368 39.2193 23.6091 38.8008 23.9738C38.3823 24.3384 37.8368 24.5208 37.1644 24.5208H33.5749ZM36.9283 21.4942H35.0236V23.3174H36.9283C37.2145 23.3174 37.4452 23.2375 37.6204 23.0778C37.7993 22.9146 37.8887 22.7045 37.8887 22.4475C37.8887 22.1558 37.8011 21.9248 37.6258 21.7546C37.4541 21.581 37.2216 21.4942 36.9283 21.4942ZM36.6815 18.6551H35.0236V20.3846H36.7351C37.0249 20.3846 37.2556 20.3047 37.4273 20.145C37.599 19.9852 37.6848 19.7821 37.6848 19.5355C37.6848 19.2646 37.59 19.051 37.4005 18.8947C37.2145 18.735 36.9748 18.6551 36.6815 18.6551Z" fill="white"/>
<path d="M42.2615 24.625C41.6749 24.625 41.2028 24.4843 40.8451 24.203C40.4909 23.9217 40.3139 23.5501 40.3139 23.0882C40.3139 22.6124 40.5196 22.2269 40.9309 21.9318C41.3458 21.6366 41.8931 21.489 42.5727 21.489C42.9626 21.489 43.3239 21.5463 43.6565 21.6609V21.5463C43.6565 21.2684 43.551 21.041 43.34 20.8639C43.1325 20.6833 42.866 20.593 42.5405 20.593C42.0398 20.593 41.5855 20.8031 41.1777 21.2233L40.389 20.4575C40.6072 20.1832 40.9059 19.9418 41.285 19.7334C41.6642 19.5216 42.097 19.4157 42.5835 19.4157C43.3382 19.4157 43.9338 19.598 44.3701 19.9627C44.8101 20.3238 45.0301 20.817 45.0301 21.4421V24.5208H43.7209V23.9634C43.5814 24.1683 43.3829 24.3298 43.1254 24.4478C42.8714 24.5659 42.5835 24.625 42.2615 24.625ZM42.6693 22.3798C42.3545 22.3798 42.1006 22.4388 41.9074 22.5569C41.7143 22.6715 41.6177 22.8243 41.6177 23.0153C41.6177 23.2028 41.6946 23.3521 41.8484 23.4633C42.0058 23.5744 42.215 23.63 42.4761 23.63C42.8124 23.63 43.0932 23.531 43.3185 23.333C43.5439 23.1351 43.6565 22.8816 43.6565 22.5725C43.3597 22.444 43.0306 22.3798 42.6693 22.3798Z" fill="white"/>
<path d="M47.9006 24.5208H46.527V19.5199H47.8362L47.863 20.0981C48.0133 19.9036 48.2261 19.7421 48.5015 19.6136C48.7769 19.4817 49.0935 19.4157 49.4512 19.4157C50.0521 19.4157 50.5404 19.5945 50.9159 19.9522C51.2951 20.3099 51.4847 20.7857 51.4847 21.3796V24.5208H50.1111V21.7234C50.1111 21.3865 50.011 21.1243 49.8107 20.9368C49.6139 20.7493 49.3582 20.6555 49.0434 20.6555C48.7251 20.6555 48.455 20.751 48.2332 20.942C48.0115 21.1295 47.9006 21.39 47.9006 21.7234V24.5208Z" fill="white"/>
<path d="M58.7615 18.5326C58.6985 18.489 58.6154 18.4853 58.5935 18.4853H54.6386C54.4486 18.4853 54.294 18.6355 54.294 18.8208C54.294 19.0062 54.4496 19.1554 54.6386 19.1554L55.6676 19.1016C55.7564 19.2824 55.7946 19.4575 55.807 19.6142H54.714C54.5422 19.6142 54.4028 19.7504 54.4028 19.9182C54.4028 19.9497 54.4095 19.9803 54.419 20.0081C54.4591 20.1304 54.5746 20.2203 54.714 20.2203L55.7478 20.1629C55.745 20.1712 55.7431 20.1777 55.7431 20.1777C55.5483 20.8728 54.377 20.8376 54.377 20.8376H53.5952V17.4565H52.3122V24.5309H53.5952V22.022H54.0525C54.0735 22.022 54.0782 22.0258 54.0906 22.0415C54.4267 22.5299 54.7627 23.0156 55.1006 23.504L55.8156 24.5309H57.4251L55.8414 22.3112C55.7373 22.1648 55.6352 22.022 55.534 21.8756L55.5569 21.8682C55.5855 21.8599 55.6151 21.8506 55.6438 21.8404C55.9655 21.7292 56.2328 21.5809 56.4485 21.3853C56.8027 21.0674 57.0117 20.6578 57.089 20.1378C57.091 20.1165 57.0919 20.0924 57.0957 20.0739L58.1658 20.0034C58.2804 19.996 58.3252 19.945 58.3558 19.8978C58.3911 19.8255 58.3739 19.7652 58.3701 19.7495C58.3415 19.6614 58.2661 19.617 58.1429 19.6132H57.1167C57.1129 19.5252 57.1081 19.4334 57.0967 19.3417C57.0852 19.2342 57.0652 19.1285 57.0394 19.0256C57.3974 19.0043 57.741 18.9849 58.016 18.9691L58.6116 18.9357C58.6613 18.9339 58.75 18.9144 58.8102 18.8384C58.836 18.8004 58.8503 18.7559 58.8503 18.7115C58.8503 18.641 58.8216 18.578 58.7605 18.5317L58.7615 18.5326Z" fill="white"/>
<path d="M35.0252 13.4076H33.5588V6.27844H36.773C37.5666 6.27844 38.2033 6.49559 38.6831 6.92989C39.1629 7.36069 39.4028 7.92808 39.4028 8.63207C39.4028 9.31153 39.1611 9.87017 38.6777 10.308C38.1979 10.7423 37.563 10.9594 36.773 10.9594H35.0252V13.4076ZM35.0252 7.50779V9.73007H36.681C37.0706 9.73007 37.3718 9.62675 37.5847 9.42011C37.7975 9.21347 37.9039 8.95079 37.9039 8.63207C37.9039 8.29583 37.7975 8.0244 37.5847 7.81775C37.3718 7.61111 37.0706 7.50779 36.681 7.50779H35.0252Z" fill="white"/>
<path d="M42.0164 13.5179C41.4247 13.5179 40.9486 13.3761 40.5878 13.0924C40.2307 12.8087 40.0521 12.4339 40.0521 11.9681C40.0521 11.4883 40.2596 11.0995 40.6744 10.8018C41.0929 10.5041 41.6448 10.3553 42.3302 10.3553C42.7234 10.3553 43.0878 10.413 43.4232 10.5286V10.413C43.4232 10.1328 43.3168 9.90344 43.104 9.72482C42.8948 9.54269 42.626 9.45163 42.2977 9.45163C41.7927 9.45163 41.3346 9.66353 40.9233 10.0873L40.1279 9.31504C40.3479 9.03835 40.6492 8.79493 41.0315 8.58478C41.4139 8.37114 41.8504 8.26431 42.341 8.26431C43.1022 8.26431 43.7028 8.44819 44.1429 8.81594C44.5866 9.18019 44.8085 9.67754 44.8085 10.308V13.4129H43.4882V12.8507C43.3475 13.0574 43.1473 13.2202 42.8876 13.3393C42.6314 13.4584 42.341 13.5179 42.0164 13.5179ZM42.4276 11.2536C42.1102 11.2536 41.854 11.3132 41.6592 11.4322C41.4644 11.5478 41.367 11.7019 41.367 11.8946C41.367 12.0837 41.4446 12.2343 41.5997 12.3464C41.7584 12.4585 41.9695 12.5145 42.2328 12.5145C42.5719 12.5145 42.8551 12.4147 43.0823 12.215C43.3096 12.0154 43.4232 11.7597 43.4232 11.448C43.1238 11.3184 42.792 11.2536 42.4276 11.2536Z" fill="white"/>
<path d="M47.6547 13.4181L45.5065 8.36938H47.0433L48.4015 12.0417L49.7434 8.36938H51.2856L48.8343 14.1011C48.6179 14.6054 48.3365 14.9837 47.9902 15.2359C47.6439 15.4915 47.202 15.6194 46.6645 15.6194C46.3074 15.6194 45.9773 15.5458 45.6743 15.3987L45.8474 14.3165C46.0603 14.404 46.2785 14.4478 46.5022 14.4478C46.7871 14.4478 47.0288 14.3568 47.2272 14.1746C47.4293 13.9925 47.5718 13.7403 47.6547 13.4181Z" fill="white"/>
<path d="M53.5636 13.4129H52.173V8.36938H53.4933L53.5204 8.95254C53.6646 8.7599 53.8757 8.59704 54.1535 8.46395C54.4348 8.33086 54.7541 8.26431 55.1112 8.26431C55.508 8.26431 55.8597 8.34312 56.1664 8.50072C56.473 8.65483 56.7021 8.87373 56.8536 9.15743C57.0412 8.88424 57.2937 8.66709 57.6111 8.50598C57.9286 8.34487 58.2767 8.26431 58.6555 8.26431C59.2615 8.26431 59.7521 8.44293 60.1273 8.80018C60.5061 9.15743 60.6955 9.63901 60.6955 10.2449V13.4129H59.3048V10.5917C59.3048 10.2519 59.2074 9.9875 59.0126 9.79837C58.8214 9.60924 58.5725 9.51467 58.2659 9.51467C57.9484 9.51467 57.6779 9.60749 57.4542 9.79312C57.2342 9.97874 57.1241 10.2344 57.1241 10.5601V13.4129H55.7335V10.5917C55.7335 10.2519 55.6361 9.9875 55.4413 9.79837C55.2501 9.60924 55.003 9.51467 54.7 9.51467C54.3825 9.51467 54.1138 9.61099 53.8937 9.80362C53.6737 9.99275 53.5636 10.2554 53.5636 10.5917V13.4129Z" fill="white"/>
<path d="M64.5644 13.5232C64.0233 13.5232 63.5417 13.4059 63.1196 13.1712C62.7012 12.9365 62.3801 12.6196 62.1565 12.2203C61.9364 11.821 61.8264 11.3762 61.8264 10.8859C61.83 10.1188 62.0825 9.49016 62.5839 8.99982C63.089 8.50948 63.7275 8.26431 64.4995 8.26431C65.2318 8.26431 65.8342 8.48671 66.3068 8.93152C66.7793 9.37633 67.0156 9.97349 67.0156 10.723C67.0156 10.9051 66.9994 11.096 66.9669 11.2957H63.2116C63.2621 11.5864 63.4209 11.828 63.6878 12.0207C63.9584 12.2098 64.2614 12.3043 64.5969 12.3043C65.1272 12.3043 65.5582 12.0679 65.8901 11.5951L66.8749 12.3096C66.6368 12.6949 66.3086 12.9943 65.8901 13.208C65.4753 13.4181 65.0334 13.5232 64.5644 13.5232ZM63.2333 10.392H65.7224C65.6863 10.1048 65.5564 9.86842 65.3328 9.68279C65.1127 9.49366 64.8404 9.39909 64.5157 9.39909C64.1766 9.39909 63.888 9.49366 63.6499 9.68279C63.4118 9.86842 63.2729 10.1048 63.2333 10.392Z" fill="white"/>
<path d="M69.6075 13.4129H68.2223V8.36938H69.5426L69.5697 8.95254C69.7212 8.7564 69.9358 8.59354 70.2136 8.46395C70.4914 8.33086 70.8106 8.26431 71.1713 8.26431C71.7774 8.26431 72.2698 8.44469 72.6486 8.80543C73.031 9.16618 73.2222 9.64601 73.2222 10.2449V13.4129H71.8369V10.5917C71.8369 10.2519 71.7359 9.9875 71.5339 9.79837C71.3355 9.60924 71.0776 9.51467 70.7601 9.51467C70.439 9.51467 70.1667 9.61099 69.943 9.80362C69.7194 9.99275 69.6075 10.2554 69.6075 10.5917V13.4129Z" fill="white"/>
<path d="M74.9267 9.48841H74.0501V8.36938H74.9321V6.75127H76.2794V8.36938H77.8378V9.48841H76.3119V11.5636C76.3119 11.8193 76.3786 12.0101 76.5121 12.1362C76.6492 12.2588 76.8386 12.3201 77.0803 12.3201C77.3761 12.3201 77.6701 12.2623 77.9623 12.1467L78.0921 13.2658C77.9334 13.3428 77.7368 13.4041 77.5023 13.4496C77.2715 13.4952 77.0496 13.5179 76.8368 13.5179C76.2488 13.5179 75.7834 13.3691 75.4407 13.0714C75.098 12.7737 74.9267 12.3359 74.9267 11.758V9.48841Z" fill="white"/>
<path d="M78.6332 12.3464L79.564 11.6161C79.7227 11.8543 79.9247 12.0434 80.17 12.1835C80.4153 12.3236 80.6696 12.3937 80.933 12.3937C81.1494 12.3937 81.3262 12.3551 81.4632 12.2781C81.6039 12.1975 81.6743 12.0889 81.6743 11.9524C81.6743 11.8263 81.6075 11.73 81.4741 11.6634C81.3442 11.5969 81.1079 11.5268 80.7652 11.4533C80.455 11.3867 80.1916 11.3149 79.9752 11.2379C79.7624 11.1608 79.5622 11.061 79.3746 10.9384C79.1906 10.8123 79.0535 10.6582 78.9633 10.4761C78.8731 10.2905 78.828 10.0716 78.828 9.81938C78.828 9.35707 79.021 8.98231 79.407 8.69511C79.7966 8.40791 80.28 8.26431 80.8572 8.26431C81.7663 8.26431 82.4607 8.61455 82.9405 9.31504L82.0531 10.0243C81.7825 9.60749 81.3947 9.39909 80.8897 9.39909C80.6624 9.39909 80.4784 9.43587 80.3377 9.50942C80.2007 9.57947 80.1321 9.67754 80.1321 9.80362C80.1321 9.92971 80.2025 10.026 80.3432 10.0926C80.4838 10.1556 80.7382 10.2309 81.1061 10.3185C81.42 10.392 81.6833 10.4708 81.8961 10.5549C82.109 10.6354 82.3038 10.7388 82.4805 10.8649C82.6573 10.9874 82.7872 11.1398 82.8701 11.3219C82.9567 11.5005 83 11.7107 83 11.9524C83 12.4147 82.7998 12.7912 82.3994 13.0819C82.0026 13.3726 81.5192 13.5179 80.9492 13.5179C80.4478 13.5179 79.9968 13.4146 79.5964 13.208C79.196 12.9978 78.8749 12.7106 78.6332 12.3464Z" fill="white"/>
</svg>
